<svg width="64" height="64" viewBox="0 0 64 64" fill="none" xmlns="http://www.w3.org/2000/svg">
  <rect width="64" height="64" rx="12" fill="#ED8B00"/>
  <path d="M20 45c0 0 -2 1 1 1c4 0 6 0 10 -1c0 0 1 1 2 1c-7 3 -16 0 -13 -1zm-1 -4c0 0 -2 1 1 1c5 0 9 0 16 -1c0 0 1 1 1 1c-9 2 -20 0 -18 -1zm14 -13c2 3 -1 5 -1 5s6 -3 3 -7c-3 -3 -5 -5 7 -11c0 0 -19 5 -9 13z" fill="white"/>
  <path d="M38 48c0 0 1 1 -1 2c-4 1 -17 1 -21 0c-1 0 1 -1 2 -1c1 0 2 0 2 0c-2 -1 -13 3 -6 4c19 3 35 -1 24 -5zm-18 -8c0 0 -9 2 -3 3c2 0 7 0 11 0c4 0 9 -1 9 -1s-1 1 -2 1c-9 2 -26 1 -21 -1c4 -2 6 -2 6 -2zm16 7c9 -5 5 -9 2 -8c-1 0 -1 0 -1 1c0 0 0 -1 1 -1c7 -5 12 6 -2 9c0 0 0 0 0 -1z" fill="white"/>
</svg>
