<svg width="64" height="64" viewBox="0 0 64 64" fill="none" xmlns="http://www.w3.org/2000/svg">
  <rect width="64" height="64" rx="12" fill="#F7DF1E"/>
  <path d="M18.814 45.638c1.019 1.662 2.356 2.89 4.713 2.89c1.98 0 3.248-.99 3.248-2.356c0-1.634-1.297-2.212-3.475-3.168l-1.193-.513c-3.444-1.466-5.73-3.31-5.73-7.197c0-3.58 2.73-6.31 6.993-6.31c3.035 0 5.218 1.056 6.791 3.824l-3.717 2.384c-.818-1.466-1.7-2.042-3.074-2.042c-1.4 0-2.287.888-2.287 2.042c0 1.43.888 2.008 2.94 2.898l1.193.513c4.057 1.738 6.343 3.513 6.343 7.504c0 4.299-3.378 6.658-7.914 6.658c-4.435 0-7.301-2.111-8.698-4.88l3.887-2.247zm22.176.205c.888 1.577 2.042 2.734 4.094 2.734c2.111 0 3.444-1.157 3.444-2.734c0-1.9-1.378-2.571-3.693-3.68l-1.267-.544c-3.68-1.577-6.138-3.546-6.138-7.709c0-3.834 2.923-6.756 7.504-6.756c3.258 0 5.594 1.133 7.265 4.094l-3.98 2.554c-.888-1.577-1.823-2.196-3.285-2.196c-1.5 0-2.451.952-2.451 2.196c0 1.533.952 2.154 3.148 3.103l1.267.544c4.345 1.862 6.803 3.765 6.803 8.04c0 4.606-3.616 7.129-8.472 7.129c-4.75 0-7.821-2.264-9.317-5.235l4.162-2.4z" fill="#323330"/>
</svg>
