<svg width="64" height="64" viewBox="0 0 64 64" fill="none" xmlns="http://www.w3.org/2000/svg">
  <rect width="64" height="64" rx="12" fill="#339933"/>
  <path d="M32 8c-1.1 0-2.2.3-3.2.8L14.4 16.6c-2 1.2-3.2 3.3-3.2 5.6v15.6c0 2.3 1.2 4.4 3.2 5.6l14.4 7.8c2 1.1 4.4 1.1 6.4 0l14.4-7.8c2-1.2 3.2-3.3 3.2-5.6V22.2c0-2.3-1.2-4.4-3.2-5.6L35.2 8.8C34.2 8.3 33.1 8 32 8z" fill="#339933"/>
  <path d="M32 12l12 6.9v13.8L32 39.6 20 32.7V18.9L32 12z" fill="#ffffff"/>
  <path d="M32 16v7.5l6-3.5-6-4zm0 15.5V39l6-3.5v-7.5l-6 3.5z" fill="#339933"/>
</svg>
