<svg width="64" height="64" viewBox="0 0 64 64" fill="none" xmlns="http://www.w3.org/2000/svg">
  <rect width="64" height="64" rx="12" fill="#3776AB"/>
  <path d="M32 8c-6.627 0-12 5.373-12 12v4h12v2H16c-2.209 0-4 1.791-4 4v12c0 2.209 1.791 4 4 4h4v-6c0-6.627 5.373-12 12-12h12c2.209 0 4-1.791 4-4V20c0-6.627-5.373-12-12-12H32zm-6 6c1.105 0 2 .895 2 2s-.895 2-2 2-2-.895-2-2 .895-2 2-2z" fill="#FFD43B"/>
  <path d="M32 56c6.627 0 12-5.373 12-12v-4H32v-2h16c2.209 0 4-1.791 4-4V22c0-2.209-1.791-4-4-4h-4v6c0 6.627-5.373 12-12 12H20c-2.209 0-4 1.791-4 4v12c0 6.627 5.373 12 12 12h4zm6-6c-1.105 0-2-.895-2-2s.895-2 2-2 2 .895 2 2-.895 2-2 2z" fill="#3776AB"/>
</svg>
